# xmcd
#
# Track frame offsets: 
#        150
#        15539
#        30733
#        45142
#        61100
#        74502
#        88633
#        102201
#        118963
#        127156
#        142212
#        155084
#        169323
#        182699
#        196130
#        207589
#        222787
#        236752
#        250726
#        266379
#        279786
#        295261
#        308921
#        320842
#
# Disc length: 4464 seconds
#
# Revision: 0
# Processed by: cddbd v1.5.2PL0 Copyright (c) Steve Scherf et al.
# Submitted via: ExactAudioCopy v0.95b3
#
DISCID=6b116e18
DTITLE=Billie Holiday  - Volume 14 - 1944-1945 - Complete Edition [Mas
DTITLE=ters of Jazz]
DYEAR=1900
DGENRE=
TTITLE0=Lover. Come Back To Me
TTITLE1=Lover. Come Back To Me
TTITLE2=I Love My Man
TTITLE3=I Love My Man
TTITLE4=I Love My Man
TTITLE5=On The Sunny Side Of The Street
TTITLE6=Do Nothin' Till You Hear From Me
TTITLE7=Fine And Mellow
TTITLE8=All Of Me
TTITLE9=Lover Man
TTITLE10=No More
TTITLE11=No More
TTITLE12=That Ole Devil Called Love
TTITLE13=Don't Explain
TTITLE14=Big Stuff
TTITLE15=I'll Be Seeing You
TTITLE16=Lover Man
TTITLE17=I Cover The Waterfront
TTITLE18=Body And Soul
TTITLE19=Strange Fruit
TTITLE20=Don't Explain
TTITLE21=Big Stuff
TTITLE22=You Better Go Now
TTITLE23=What Is This Thing Called Love ?
EXTD=
EXTT0=
EXTT1=
EXTT2=
EXTT3=
EXTT4=
EXTT5=
EXTT6=
EXTT7=
EXTT8=
EXTT9=
EXTT10=
EXTT11=
EXTT12=
EXTT13=
EXTT14=
EXTT15=
EXTT16=
EXTT17=
EXTT18=
EXTT19=
EXTT20=
EXTT21=
EXTT22=
EXTT23=
PLAYORDER=
